<svg height="512" viewBox="0 0 512 512" width="512" xmlns="http://www.w3.org/2000/svg"><g id="flat"><path d="m240 408a7.954 7.954 0 0 1 -3.4-.764l-111.89-52.649a50.2 50.2 0 0 1 -28.71-45.24v-125.347a8 8 0 0 1 16 0v125.347a34.138 34.138 0 0 0 19.522 30.763l111.884 52.652a8 8 0 0 1 -3.406 15.238z" fill="#b9b9b9"/><path d="m45.3 237.089a7.978 7.978 0 0 1 -5.981-2.684 86.551 86.551 0 0 1 3.509-118.605c.122-.123.27-.263.419-.4a8 8 0 0 1 11.232 11.4q-.169.165-.342.325l.027-.029a70.544 70.544 0 0 0 -2.888 96.681 8 8 0 0 1 -5.976 13.312z" fill="#fbb540"/><path d="m66.45 218.312a7.98 7.98 0 0 1 -5.98-2.683 58.255 58.255 0 0 1 2.358-79.83 8 8 0 0 1 11.315 11.314 42.239 42.239 0 0 0 -1.718 57.887 8 8 0 0 1 -5.975 13.316z" fill="#fbb540"/><path d="m240 344h144a0 0 0 0 1 0 0v104a24 24 0 0 1 -24 24h-96a24 24 0 0 1 -24-24v-104a0 0 0 0 1 0 0z" fill="#d9d9d9"/><path d="m272 344h80a0 0 0 0 1 0 0v56a40 40 0 0 1 -40 40 40 40 0 0 1 -40-40v-56a0 0 0 0 1 0 0z" fill="#b94137"/><circle cx="312" cy="216" fill="#dc4d41" r="160"/><path d="m298.462 328h-2.462a80 80 0 0 1 -68.6-38.84 80 80 0 0 1 0-82.32l23.3-38.84v22.627a61.252 61.252 0 0 0 17.941 43.314l2.064 2.059a16.971 16.971 0 0 0 24 0 16.971 16.971 0 0 0 0-24 40.967 40.967 0 0 1 -12-28.971v-8.4a61.252 61.252 0 0 1 24.5-49l39.5-29.629v36.994a54.18 54.18 0 0 0 11.873 33.847l17.833 22.292a80 80 0 0 1 6.633 90.285 97.919 97.919 0 0 1 -84.582 48.582z" fill="#fbb540"/><path d="m340.7 216a8 8 0 0 1 -7.755-6.062l-2-8a8 8 0 1 1 15.522-3.88l2 8a8.007 8.007 0 0 1 -7.767 9.942z" fill="#fd9226"/><path d="m296.6 304h-13.9a8 8 0 1 1 0-16h13.9a43.615 43.615 0 0 0 43.458-47.319 8 8 0 1 1 15.942-1.362 59.615 59.615 0 0 1 -59.4 64.681z" fill="#fd9226"/><g fill="#f55648"><path d="m190.375 184a8.006 8.006 0 0 1 -7.6-10.5 135.81 135.81 0 0 1 44.225-63.668 8 8 0 0 1 10 12.484 119.828 119.828 0 0 0 -39.03 56.182 8 8 0 0 1 -7.595 5.502z"/><path d="m184.238 232a8 8 0 0 1 -7.976-7.508c-.174-2.812-.262-5.669-.262-8.492s.088-5.68.262-8.492a8 8 0 0 1 15.968.984c-.152 2.486-.23 5.012-.23 7.508s.078 5.022.23 7.508a8 8 0 0 1 -7.492 8.476c-.167.016-.338.016-.5.016z"/><path d="m435.974 256a8.006 8.006 0 0 1 -7.754-10 120.423 120.423 0 0 0 -12.269-90 8 8 0 0 1 13.85-8.012 136.435 136.435 0 0 1 13.915 102 8.005 8.005 0 0 1 -7.742 6.012z"/><path d="m404.953 136a7.976 7.976 0 0 1 -5.809-2.5 120.814 120.814 0 0 0 -19.644-16.734 8 8 0 0 1 9.01-13.221 136.784 136.784 0 0 1 22.251 18.955 8 8 0 0 1 -5.808 13.5z"/></g><circle cx="104" cy="176.971" fill="#b94137" r="16.971"/></g></svg>